<svg width="32" height="32" viewBox="0 0 32 32" fill="none" xmlns="http://www.w3.org/2000/svg">
<mask id="mask0_47_83" style="mask-type:alpha" maskUnits="userSpaceOnUse" x="0" y="0" width="32" height="32">
<rect width="32" height="32" fill="#D9D9D9"/>
</mask>
<g mask="url(#mask0_47_83)">
<path d="M13.0264 5.3169C13.7716 4.05771 15.4241 3.62604 16.7148 4.35303L26.6514 9.94971C27.9419 10.6767 28.3847 12.2883 27.6396 13.5474L21.5859 23.7749C21.3898 24.1063 21.0115 24.2905 20.623 24.2476C20.1213 24.1297 19.6124 24.3773 19.3389 24.8394C19.0654 25.3014 19.1003 25.8546 19.3818 26.273C19.5921 26.5513 19.6136 26.9248 19.4365 27.2241C19.3135 27.6158 19.0898 27.9927 19.0898 27.9927C18.3445 29.2515 16.693 29.6834 15.4023 28.9565L5.46582 23.3599C4.17518 22.6329 3.73244 21.0213 4.47754 19.7622L4.90527 19.0396C5.1014 18.7084 5.47989 18.5241 5.86816 18.5669C6.3698 18.6847 6.87882 18.438 7.15234 17.9761C7.42583 17.514 7.39105 16.9599 7.10938 16.5415C6.89929 16.2631 6.87856 15.8906 7.05566 15.5913C8.28666 13.3275 13.0264 5.3169 13.0264 5.3169ZM17.3076 22.7466C16.9046 22.5197 16.3899 22.6543 16.1572 23.0474C15.9245 23.4406 16.0628 23.9424 16.4658 24.1694C16.8676 24.3957 17.3835 24.2618 17.6162 23.8687C17.8486 23.4755 17.7093 22.9728 17.3076 22.7466ZM13.667 20.6958C13.264 20.4688 12.7494 20.6036 12.5166 20.9966C12.2839 21.3898 12.4212 21.8926 12.8242 22.1196C13.2271 22.3465 13.7418 22.2117 13.9746 21.8189C14.2073 21.4257 14.07 20.9228 13.667 20.6958ZM9.8916 18.5698C9.4898 18.3437 8.97386 18.4775 8.74121 18.8706C8.50854 19.2638 8.64801 19.7663 9.0498 19.9927C9.45286 20.2197 9.96749 20.0851 10.2002 19.6919C10.4326 19.2987 10.2946 18.7968 9.8916 18.5698ZM20.2891 9.49463C17.8803 8.1414 14.758 8.95973 13.3682 11.3081C11.9776 13.6578 12.816 16.7074 15.2246 18.064C17.6332 19.4205 20.7608 18.6031 22.1514 16.2534C23.5407 13.9032 22.703 10.8546 20.2959 9.49854L20.2891 9.49463ZM10.6865 5.91065C9.26076 8.32756 6.45868 13.0985 5.55176 14.7651C5.24666 15.2932 5.28286 15.9559 5.64844 16.4565C5.7763 16.6541 5.79101 16.9121 5.66309 17.1274C5.55903 17.303 5.37966 17.4247 5.18848 17.3794C5.15904 17.3726 5.12947 17.3675 5.09863 17.3648C4.72746 17.3236 4.36193 17.4015 4.0498 17.5757C4.0007 13.927 4.00098 7.8529 4.00098 7.82569C4.00098 6.76812 4.87978 5.91065 5.96387 5.91065H10.6865ZM17.1221 11.479C18.5451 11.1072 19.9717 11.5209 20.5811 12.48L20.626 12.5513C20.6397 12.5745 20.6667 12.5886 20.6943 12.5855L20.7773 12.5825C21.061 12.5696 21.2924 12.695 21.3447 12.8892C21.3977 13.0822 21.25 13.3228 20.9863 13.4419L20.9111 13.4751C20.8865 13.4866 20.8691 13.5108 20.8662 13.5376L20.8613 13.6177C20.8151 14.2252 20.4758 14.8143 19.9434 15.2778C19.9003 15.2851 19.8563 15.2856 19.8135 15.2788C19.7647 15.2735 19.717 15.2627 19.6709 15.2446C19.5664 15.2047 19.4691 15.1469 19.3848 15.0757C19.2018 14.9267 19.0469 14.7168 18.918 14.4985C18.7897 14.2711 18.6841 14.0317 18.6074 13.7827C18.564 13.6585 18.5327 13.5307 18.5029 13.3999C18.4725 13.2703 18.4501 13.1405 18.4336 13.0093C18.4293 12.9753 18.4092 12.9434 18.3789 12.9263C18.3265 12.8968 18.2587 12.9143 18.2285 12.9653C18.2173 12.9842 18.2129 13.0067 18.2158 13.0288C18.223 13.1675 18.2334 13.3037 18.25 13.4429C18.2666 13.5821 18.2887 13.7174 18.3193 13.855C18.3779 14.1317 18.4667 14.4015 18.5811 14.6606C18.7011 14.9215 18.8519 15.1776 19.0732 15.3989C19.1444 15.4707 19.2217 15.5349 19.3057 15.5933C19.3383 15.6149 19.3488 15.6606 19.3291 15.6939C19.3214 15.7067 19.3106 15.7158 19.2979 15.7212C19.0112 15.8764 18.7059 15.9978 18.3896 16.0825C17.4235 16.3351 16.447 16.2206 15.7285 15.8159C15.4269 15.6508 15.1701 15.421 14.9736 15.144L14.9297 15.0815C14.9154 15.0593 14.8903 15.0464 14.8633 15.0483L14.7842 15.0503C14.6596 15.0578 14.5339 15.0305 14.4229 14.9712C14.3314 14.9228 14.2623 14.8427 14.2305 14.7456C14.1802 14.5621 14.3024 14.3466 14.5322 14.2212L14.6035 14.1802C14.6269 14.1681 14.6415 14.1444 14.6406 14.1187L14.6436 14.0396C14.6644 13.3021 15.1299 12.5787 15.8506 12.0659C15.8756 12.0486 15.9079 12.046 15.9346 12.061C15.9612 12.0762 15.9757 12.1088 15.9707 12.1392C15.9481 12.3226 15.9405 12.5081 15.9512 12.6929C15.971 12.9749 16.0198 13.255 16.0938 13.5278C16.1296 13.662 16.1753 13.7971 16.2227 13.9282C16.27 14.0593 16.3267 14.188 16.3857 14.313C16.4079 14.3634 16.4683 14.3874 16.5205 14.3677C16.5448 14.3593 16.5658 14.3431 16.5791 14.3208C16.5946 14.2947 16.5971 14.2624 16.5869 14.2329C16.5411 14.1074 16.5042 13.9812 16.4688 13.8521C16.4333 13.7229 16.407 13.594 16.3848 13.4644C16.3394 13.2093 16.3203 12.9503 16.3262 12.6909C16.3355 12.4366 16.3785 12.1834 16.4717 11.9683C16.5126 11.8662 16.5724 11.7713 16.6455 11.689C16.6759 11.654 16.7105 11.6242 16.749 11.6001C16.7619 11.5947 16.7748 11.5878 16.7871 11.5806C16.8966 11.5409 17.0082 11.5068 17.1221 11.479Z" fill="white"/>
</g>
</svg>
